<?xml version="1.0" standalone="no"?>
<!DOCTYPE svg PUBLIC "-//W3C//DTD SVG 20010904//EN"
 "http://www.w3.org/TR/2001/REC-SVG-20010904/DTD/svg10.dtd">
<svg version="1.0" xmlns="http://www.w3.org/2000/svg"
 width="500.000000pt" height="500.000000pt" viewBox="0 0 500.000000 500.000000"
 preserveAspectRatio="xMidYMid meet">

<g transform="translate(0.000000,500.000000) scale(0.100000,-0.100000)"
fill="#000000" stroke="none">
<path d="M1455 3520 c-16 -4 -23 -8 -15 -10 8 -1 -7 -8 -35 -16 -27 -9 -56
-23 -62 -32 -7 -9 -13 -13 -13 -9 0 14 -74 -33 -103 -65 -57 -63 -60 -79 -65
-376 -2 -151 0 -277 4 -282 11 -10 714 400 714 417 0 7 7 10 15 7 8 -4 15 -1
15 7 0 7 3 9 7 6 3 -4 16 2 27 12 12 11 23 20 26 19 7 0 80 43 80 48 0 2 -6 1
-14 -2 -7 -3 -20 2 -29 10 -9 9 -20 16 -26 16 -6 0 -11 5 -11 10 0 6 5 10 10
10 6 0 10 5 10 10 0 6 -5 10 -12 10 -6 0 -23 13 -37 28 -14 16 -34 31 -43 35
-11 4 -17 15 -16 30 2 28 -39 90 -54 81 -7 -4 -6 -9 2 -14 16 -10 6 -40 -13
-40 -8 0 -26 11 -41 25 -36 34 -84 57 -98 49 -7 -5 -8 -3 -3 6 6 10 4 12 -10
6 -11 -4 -22 -2 -26 5 -6 10 -20 9 -61 -5 -29 -9 -54 -13 -56 -7 -2 5 -13 7
-25 4 -18 -4 -19 -3 -7 6 17 12 9 12 -35 1z"/>
<path d="M2103 3295 c0 -7 6 -11 14 -8 7 3 13 6 13 8 0 2 -6 5 -13 8 -8 3 -14
-1 -14 -8z"/>
<path d="M3834 2645 c0 -55 1 -76 3 -47 2 29 2 74 0 100 -2 26 -3 2 -3 -53z"/>
<path d="M3271 2604 c0 -11 3 -14 6 -6 3 7 2 16 -1 19 -3 4 -6 -2 -5 -13z"/>
<path d="M3292 2572 c-21 -17 -22 -20 -15 -199 3 -101 8 -183 10 -183 4 0 84
55 217 148 33 24 72 50 86 59 65 43 119 95 113 109 -3 7 0 14 6 14 6 0 11 -5
11 -11 0 -5 5 -7 11 -3 8 4 8 9 0 17 -7 7 -18 7 -36 -1 -15 -7 -25 -8 -25 -2
0 6 -33 10 -75 10 -62 0 -75 3 -75 16 0 14 -12 16 -80 12 -60 -2 -80 0 -80 9
0 17 -20 17 -20 1 -1 -8 -5 -7 -13 4 -12 15 -14 15 -35 0z"/>
<path d="M1178 2413 c-15 -38 -21 -304 -10 -441 11 -133 18 -147 113 -210 84
-56 654 -382 667 -382 6 0 26 9 44 21 150 93 227 140 313 189 175 100 195 111
199 118 2 4 -42 31 -97 60 -222 116 -347 187 -347 197 0 5 144 75 320 154 176
79 320 148 320 153 0 15 -74 8 -265 -27 -104 -19 -237 -41 -295 -50 -58 -9
-168 -28 -245 -44 l-139 -28 -83 47 c-45 26 -79 51 -75 55 4 5 2 5 -4 2 -7 -4
-37 8 -68 26 -94 54 -200 121 -212 132 -6 6 -30 17 -53 25 -22 7 -41 17 -41
22 0 20 -32 5 -42 -19z"/>
</g>
</svg>
